<?xml version="1.0" standalone="no"?>
<!DOCTYPE svg PUBLIC "-//W3C//DTD SVG 20010904//EN"
 "http://www.w3.org/TR/2001/REC-SVG-20010904/DTD/svg10.dtd">
<svg version="1.0" xmlns="http://www.w3.org/2000/svg"
 width="500.000000pt" height="500.000000pt" viewBox="0 0 500.000000 500.000000"
 preserveAspectRatio="xMidYMid meet">

<g transform="translate(0.000000,500.000000) scale(0.100000,-0.100000)"
fill="#000000" stroke="none">
<path d="M1567 3350 c-153 -19 -277 -77 -393 -183 -105 -97 -173 -219 -129
-234 6 -1 52 31 104 72 148 120 255 165 390 165 85 0 140 -13 255 -60 70 -28
84 -31 116 -21 44 13 118 75 131 109 36 93 -239 181 -474 152z"/>
<path d="M2500 3348 c0 -2 -2 -63 -3 -136 -2 -120 0 -132 16 -132 14 0 17 10
17 68 0 64 2 70 26 81 42 19 54 0 54 -80 0 -55 3 -69 15 -69 12 0 15 16 15 80
0 77 -1 81 -25 90 -16 6 -34 6 -51 0 -14 -6 -27 -10 -30 -10 -2 0 -4 25 -4 55
0 42 -3 55 -15 55 -8 0 -15 -1 -15 -2z"/>
<path d="M3234 3329 c-10 -17 13 -36 27 -22 12 12 4 33 -11 33 -5 0 -12 -5
-16 -11z"/>
<path d="M2344 3316 c-46 -20 -64 -52 -64 -112 0 -63 32 -108 82 -118 44 -8
92 6 96 28 3 15 1 16 -16 7 -55 -29 -120 1 -124 57 -5 105 37 147 120 119 16
-6 22 -5 22 6 0 8 -14 17 -31 21 -42 8 -49 7 -85 -8z"/>
<path d="M2745 3249 c-11 -6 -26 -19 -32 -27 -15 -19 -17 -76 -3 -102 13 -24
70 -43 104 -34 40 10 31 22 -15 20 -30 0 -45 5 -55 19 -27 36 -18 45 46 45 56
0 60 2 60 23 0 13 -6 31 -12 40 -17 22 -67 30 -93 16z m56 -19 c34 -19 23 -40
-20 -40 -48 0 -59 13 -29 34 27 19 24 19 49 6z"/>
<path d="M2975 3250 c-11 -4 -32 -6 -47 -3 l-27 5 0 -86 c1 -78 3 -86 20 -86
17 0 19 8 19 70 0 67 1 71 26 80 42 16 54 -2 54 -81 0 -55 3 -69 15 -69 12 0
15 14 15 65 0 57 3 66 24 80 26 18 55 11 57 -14 1 -9 0 -42 -1 -73 -2 -53 0
-58 19 -58 19 0 21 6 21 70 0 57 -4 74 -20 90 -23 23 -36 24 -69 6 -20 -11
-28 -11 -50 0 -29 16 -29 16 -56 4z"/>
<path d="M3363 3250 c-44 -18 -59 -99 -25 -139 23 -29 72 -37 97 -16 19 15 19
16 -12 10 -40 -8 -73 21 -73 65 0 38 33 73 60 65 28 -9 50 6 24 16 -25 10 -44
10 -71 -1z"/>
<path d="M3513 3250 c-28 -12 -43 -40 -43 -83 0 -52 29 -82 80 -82 32 0 47 6
61 24 24 30 25 92 2 120 -21 24 -68 35 -100 21z m67 -30 c28 -28 27 -84 -2
-104 -29 -20 -34 -20 -58 4 -28 28 -27 84 2 104 29 20 34 20 58 -4z"/>
<path d="M3232 3165 c1 -76 3 -85 19 -85 17 0 19 9 19 85 0 77 -2 85 -19 85
-18 0 -20 -7 -19 -85z"/>
<path d="M1935 2946 c-94 -30 -155 -79 -155 -125 0 -50 34 -71 114 -71 164 0
307 142 199 199 -28 14 -107 13 -158 -3z"/>
<path d="M1139 2902 c-114 -73 -147 -157 -164 -427 -8 -125 9 -339 35 -440 41
-161 126 -284 238 -343 87 -46 177 -65 317 -65 202 0 341 53 443 168 48 55 74
121 52 135 -17 10 -32 4 -98 -38 -98 -62 -151 -76 -297 -76 -114 -1 -137 2
-188 22 -106 43 -199 165 -232 303 -42 182 -40 429 5 662 11 54 17 104 13 112
-9 25 -74 18 -124 -13z"/>
<path d="M3514 2869 c-10 -17 13 -36 27 -22 12 12 4 33 -11 33 -5 0 -12 -5
-16 -11z"/>
<path d="M2290 2745 c0 -112 2 -125 18 -125 15 0 17 13 19 125 1 117 0 125
-18 125 -18 0 -19 -8 -19 -125z"/>
<path d="M3403 2833 c-7 -3 -13 -11 -13 -19 0 -8 -7 -14 -15 -14 -8 0 -15 -4
-15 -10 0 -5 7 -10 15 -10 11 0 15 -17 17 -72 l3 -73 39 0 c22 0 41 5 43 10 2
6 -9 11 -24 10 -28 0 -28 1 -28 60 0 58 1 60 28 63 36 4 35 22 -2 22 -21 0
-31 5 -33 18 -2 11 -9 17 -15 15z"/>
<path d="M2465 2790 c-11 -4 -32 -6 -46 -3 l-26 5 0 -86 c1 -76 3 -86 19 -86
16 0 18 9 18 68 0 64 2 70 25 80 45 21 55 7 55 -74 0 -66 2 -74 19 -74 17 0
18 7 15 76 -1 43 -7 80 -11 84 -14 14 -48 19 -68 10z"/>
<path d="M2675 2790 c-11 -4 -32 -6 -46 -3 l-26 5 0 -86 c1 -76 3 -86 19 -86
16 0 18 9 18 68 0 64 2 70 25 80 45 21 55 7 55 -74 0 -66 2 -74 19 -74 17 0
18 7 15 76 -1 43 -7 80 -11 84 -14 14 -48 19 -68 10z"/>
<path d="M2844 2786 c-35 -15 -44 -32 -44 -81 0 -50 29 -80 79 -80 55 0 82 28
83 84 1 69 -54 105 -118 77z m64 -22 c41 -28 23 -124 -24 -124 -24 0 -54 38
-54 70 0 27 29 70 48 70 4 0 18 -7 30 -16z"/>
<path d="M3005 2753 c32 -107 42 -128 62 -131 20 -3 22 1 81 166 2 6 -2 12
-10 12 -8 0 -23 -29 -37 -70 -13 -38 -27 -70 -31 -70 -4 0 -16 30 -27 68 -13
42 -26 68 -36 70 -15 3 -15 -1 -2 -45z"/>
<path d="M3210 2791 c-14 -4 -26 -14 -28 -23 -3 -16 -1 -16 26 -2 34 17 58 11
65 -17 6 -21 -18 -39 -50 -39 -34 0 -57 -24 -50 -52 8 -30 39 -41 72 -26 15 7
28 7 42 0 10 -6 25 -7 32 -3 10 6 9 10 -4 15 -14 5 -16 15 -10 65 6 54 5 60
-16 75 -25 17 -39 18 -79 7z m60 -111 c0 -26 -36 -46 -56 -29 -20 16 -17 28 9
39 35 14 47 12 47 -10z"/>
<path d="M3644 2786 c-35 -15 -44 -32 -44 -81 0 -50 29 -80 79 -80 55 0 82 28
83 84 1 69 -54 105 -118 77z m64 -22 c41 -28 23 -124 -24 -124 -24 0 -54 38
-54 70 0 27 29 70 48 70 4 0 18 -7 30 -16z"/>
<path d="M3885 2790 c-11 -4 -32 -6 -46 -3 l-26 5 0 -86 c1 -76 3 -86 19 -86
16 0 18 9 18 68 0 64 2 70 25 80 45 21 55 7 55 -74 0 -66 2 -74 19 -74 17 0
18 7 15 76 -1 43 -7 80 -11 84 -14 14 -48 19 -68 10z"/>
<path d="M4040 2787 c-41 -21 -33 -57 18 -85 23 -13 42 -28 42 -32 0 -18 -38
-30 -64 -20 -20 7 -26 6 -26 -4 0 -20 48 -29 81 -16 55 23 47 68 -18 95 -36
15 -41 26 -18 45 12 10 21 10 40 2 20 -9 25 -9 25 2 0 26 -41 33 -80 13z"/>
<path d="M3515 2705 c-1 -75 1 -85 17 -85 16 0 18 10 18 85 0 74 -2 85 -17 85
-16 0 -18 -11 -18 -85z"/>
<path d="M2005 2684 c-108 -22 -138 -30 -192 -54 -69 -31 -99 -66 -89 -105 5
-18 13 -25 30 -25 29 0 50 -23 42 -47 -11 -36 -46 -287 -46 -329 0 -49 24 -79
71 -89 56 -13 220 47 264 95 9 10 17 30 18 46 2 25 -2 29 -25 32 -48 6 -49 17
-23 186 14 87 25 184 25 217 0 55 -2 60 -26 69 -14 6 -26 9 -27 9 -1 -1 -11
-3 -22 -5z"/>
<path d="M3128 2290 c-3 -128 -1 -140 15 -140 15 0 17 13 17 140 0 116 -3 140
-14 140 -12 0 -16 -26 -18 -140z"/>
<path d="M3521 2384 l3 -46 -39 -3 c-49 -3 -85 -41 -85 -91 0 -71 46 -107 101
-79 16 9 29 11 29 6 0 -15 33 -23 44 -10 8 8 8 13 -1 16 -10 3 -13 39 -13 129
0 119 -1 124 -21 124 -18 0 -20 -5 -18 -46z m7 -127 c4 -59 -10 -79 -52 -75
-27 3 -32 8 -40 40 -7 26 -6 46 2 63 10 22 18 26 50 23 37 -3 37 -3 40 -51z"/>
<path d="M3968 2290 c-3 -128 -1 -140 15 -140 14 0 17 10 17 69 0 75 12 95 52
89 21 -3 23 -8 26 -80 3 -70 5 -78 22 -78 18 0 20 7 20 69 0 38 -3 77 -6 86
-11 28 -51 37 -85 20 l-29 -16 0 61 c0 46 -3 60 -14 60 -12 0 -16 -26 -18
-140z"/>
<path d="M2290 2279 l0 -132 60 6 c76 7 110 27 110 67 0 28 -22 60 -41 60 -5
0 0 13 12 30 41 55 -2 100 -97 100 l-44 0 0 -131z m112 87 c14 -21 8 -45 -14
-60 -49 -35 -75 -14 -64 50 7 34 9 35 39 28 18 -3 35 -12 39 -18z m6 -108 c28
-28 9 -74 -33 -78 -51 -6 -55 -2 -55 45 l0 45 38 0 c21 0 43 -5 50 -12z"/>
<path d="M2548 2329 c-16 -6 -28 -17 -28 -25 0 -11 4 -12 19 -4 11 5 31 10 45
10 22 0 26 -5 26 -29 0 -25 -4 -30 -37 -36 -21 -4 -44 -11 -50 -17 -21 -17
-15 -46 12 -64 23 -15 27 -15 50 0 23 15 27 15 41 2 8 -8 21 -13 29 -10 20 8
19 24 -1 24 -14 0 -16 8 -11 59 7 65 -3 87 -43 95 -14 3 -37 0 -52 -5z m50
-140 c-20 -14 -52 -6 -56 13 -2 12 6 20 30 26 29 7 33 6 36 -11 2 -11 -2 -24
-10 -28z"/>
<path d="M2768 2325 c-16 -7 -28 -10 -28 -4 0 5 -8 9 -18 9 -17 0 -19 -9 -19
-90 0 -81 2 -90 19 -90 16 0 18 9 18 69 0 75 12 95 52 89 21 -3 23 -8 26 -80
2 -66 6 -78 20 -78 15 0 17 10 14 83 -2 45 -7 85 -10 88 -16 16 -49 18 -74 4z"/>
<path d="M2937 2326 c-25 -13 -35 -59 -16 -82 9 -11 9 -17 -1 -29 -10 -13 -10
-19 4 -34 15 -16 15 -19 1 -24 -27 -11 -18 -53 13 -66 52 -22 122 10 122 55 0
23 -31 39 -90 46 -40 5 -31 30 12 33 47 2 68 20 68 55 0 16 7 30 15 34 32 12
13 21 -45 22 -33 0 -70 -4 -83 -10z m78 -46 c0 -21 -5 -26 -33 -28 -34 -3 -50
14 -38 44 4 10 16 14 38 12 28 -2 33 -7 33 -28z m9 -131 c20 -18 -4 -39 -43
-39 -44 0 -56 16 -33 42 15 18 55 16 76 -3z"/>
<path d="M3248 2329 c-16 -6 -28 -17 -28 -25 0 -11 4 -12 19 -4 11 5 31 10 45
10 22 0 26 -5 26 -29 0 -25 -4 -30 -37 -36 -21 -4 -44 -11 -50 -17 -21 -17
-15 -46 12 -64 23 -15 27 -15 50 0 23 15 27 15 41 2 8 -8 21 -13 29 -10 20 8
19 24 -1 24 -14 0 -16 8 -11 59 7 65 -3 87 -43 95 -14 3 -37 0 -52 -5z m50
-140 c-20 -14 -52 -6 -56 13 -2 12 6 20 30 26 29 7 33 6 36 -11 2 -11 -2 -24
-10 -28z"/>
<path d="M3664 2330 c-72 -29 -71 -146 1 -170 37 -12 81 -5 88 15 4 9 -5 11
-37 8 -46 -6 -80 15 -74 46 2 12 17 17 61 19 55 3 57 4 57 31 0 16 -6 33 -13
39 -19 16 -60 22 -83 12z m64 -42 c3 -15 -4 -18 -43 -18 -43 0 -45 1 -35 21
14 26 73 24 78 -3z"/>
<path d="M3830 2327 c-28 -14 -38 -49 -18 -67 7 -6 28 -20 45 -30 46 -27 35
-54 -18 -47 -28 4 -39 1 -39 -8 0 -18 54 -29 78 -16 54 29 51 72 -6 99 -49 23
-49 47 1 47 41 0 51 19 15 29 -30 8 -29 8 -58 -7z"/>
<path d="M2690 1905 c0 -35 -3 -43 -15 -39 -22 9 -84 -15 -95 -36 -13 -24 -13
-76 1 -101 15 -28 54 -41 84 -27 18 8 28 8 39 -1 10 -8 21 -9 32 -3 15 8 15
10 0 15 -13 5 -16 25 -16 122 0 96 -3 115 -15 115 -11 0 -15 -12 -15 -45z m-9
-65 c5 0 9 -25 9 -55 0 -43 -4 -56 -19 -65 -37 -19 -71 12 -71 64 0 31 36 70
57 62 8 -3 19 -6 24 -6z"/>
<path d="M2300 1815 l0 -125 59 0 c33 0 63 5 66 10 4 6 -13 10 -44 10 l-51 0
0 115 c0 96 -3 115 -15 115 -13 0 -15 -21 -15 -125z"/>
<path d="M2460 1885 c0 -8 -7 -15 -15 -15 -8 0 -15 -4 -15 -10 0 -5 7 -10 15
-10 11 0 15 -17 17 -72 l3 -73 38 -3 c39 -3 53 14 15 20 -21 3 -23 9 -26 66
-3 61 -2 62 23 62 14 0 25 5 25 10 0 6 -11 10 -25 10 -16 0 -25 6 -25 15 0 8
-7 15 -15 15 -8 0 -15 -7 -15 -15z"/>
<path d="M2785 1720 c-8 -13 4 -32 16 -25 12 8 12 35 0 35 -6 0 -13 -4 -16
-10z"/>
</g>
</svg>
